# xmcd CD database file
#
# Track frame offsets:
#	150
#	8829
#	17451
#	33909
#	43167
#	51200
#	72167
#	83182
#	93410
#	101372
#	116784
#
# Disc length: 1681 seconds
#
# Revision: 0
# Processed by: cddbd v1.5.2PL0 Copyright (c) Steve Scherf et al.
# Submitted via: CDex 1.51
#
DISCID=82068f0b
DTITLE=Tim Janis - Wondrous Christmas
DYEAR=2006
DGENRE=New Age
TTITLE0=Tim Janis - Wondrous Christmas - 01 - I'll Always Be With You
TTITLE1=Tim Janis - Wondrous Christmas - 02 - White Christmas
TTITLE2=Tim Janis - Wondrous Christmas - 03 - O Holy Night
TTITLE3=Tim Janis - Wondrous Christmas - 04 - God's Great Gift
TTITLE4=Tim Janis - Wondrous Christmas - 05 - We Three Kings Of Orient Are
TTITLE5=Tim Janis - Wondrous Christmas - 06 - Offering
TTITLE6=Tim Janis - Wondrous Christmas - 07 - I'll Be Home For Christmas
TTITLE7=Tim Janis - Wondrous Christmas - 08 - Gloria
TTITLE8=Tim Janis - Wondrous Christmas - 09 - O Little Town Of Bethlehem
TTITLE9=Tim Janis - Wondrous Christmas - 10 - Christmas Morning
TTITLE10=Tim Janis - Wondrous Christmas - 11 - Go Tell It On The Mountain
EXTD=YEAR: 2006
EXTT0=
EXTT1=
EXTT2=
EXTT3=
EXTT4=
EXTT5=
EXTT6=
EXTT7=
EXTT8=
EXTT9=
EXTT10=
PLAYORDER=
